<?xml version="1.0" encoding="UTF-8" standalone="no"?><svg version="1.1" id="Ebene_1" x="0px" y="0px" width="246.68607" height="169.034" viewBox="0 0 246.68607 169.034" enable-background="new 0 0 283.46 283.46" xml:space="preserve" xmlns:xlink="http://www.w3.org/1999/xlink" xmlns="http://www.w3.org/2000/svg" xmlns:svg="http://www.w3.org/2000/svg"><defs id="defs465" /><g id="g54" transform="translate(-19.001399,-48.335)"><linearGradient id="SVGID_1_" gradientUnits="userSpaceOnUse" x1="31.329599" y1="174.16701" x2="31.329599" y2="155.12601"><stop offset="0" style="stop-color:#00A19A" id="stop2" /><stop offset="0.1471" style="stop-color:#0098A5" id="stop4" /><stop offset="0.4596" style="stop-color:#0D7CB6" id="stop6" /><stop offset="0.5645" style="stop-color:#1D71B8" id="stop8" /><stop offset="1" style="stop-color:#312783" id="stop10" /></linearGradient><path fill="url(#SVGID_1_)" d="m 37.67,163.237 c -2.903,7.429 -2.946,7.898 -2.946,8.197 0,0.556 0.213,0.812 0.982,0.812 2.818,0 4.824,-3.202 6.233,-5.978 0.085,0.299 0.17,0.598 0.17,0.939 0,3.458 -4.354,6.66 -7.983,6.66 -1.879,0 -3.928,-0.598 -3.928,-3.116 -1.793,2.562 -3.33,3.415 -6.02,3.415 -2.604,0 -3.629,-1.708 -3.629,-4.354 0,-7.898 6.233,-14.687 12.04,-14.687 2.604,0 2.689,1.067 4.654,1.067 0.726,0 1.964,-0.214 3.629,-0.641 -0.47,0.855 -0.982,1.966 -3.202,7.686 z m -11.357,9.094 c 1.58,0 7.386,-8.966 7.386,-14.388 0,-0.896 -0.256,-1.323 -0.896,-1.323 -1.921,0 -7.514,8.88 -7.514,14.132 0,1.152 0.341,1.579 1.024,1.579 z" id="path13" style="fill:url(#SVGID_1_)" /><linearGradient id="SVGID_2_" gradientUnits="userSpaceOnUse" x1="49.5396" y1="185.39549" x2="49.5396" y2="155.12601"><stop offset="0" style="stop-color:#00A19A" id="stop15" /><stop offset="0.1471" style="stop-color:#0098A5" id="stop17" /><stop offset="0.4596" style="stop-color:#0D7CB6" id="stop19" /><stop offset="0.5645" style="stop-color:#1D71B8" id="stop21" /><stop offset="1" style="stop-color:#312783" id="stop23" /></linearGradient><path fill="url(#SVGID_2_)" d="m 49.198,171.435 c -1.708,1.751 -3.288,2.732 -5.978,2.732 -2.263,0 -3.202,-1.665 -3.202,-3.928 0,-7.898 7.643,-15.113 13.278,-15.113 2.732,0 5.764,0.427 5.764,4.141 0,1.495 -0.085,1.964 -2.69,9.009 -6.361,17.078 -9.862,17.12 -13.363,17.12 0.683,-0.896 2.092,-3.116 3.586,-7.044 z m -1.708,-0.128 c 1.708,0 6.66,-8.154 6.66,-13.705 0,-0.769 -0.128,-1.323 -0.64,-1.323 -1.921,0 -7.13,7.898 -7.13,13.107 0,1.152 0.128,1.921 1.11,1.921 z" id="path26" style="fill:url(#SVGID_2_)" /><linearGradient id="SVGID_3_" gradientUnits="userSpaceOnUse" x1="69.798302" y1="173.86819" x2="69.798302" y2="155.5957"><stop offset="0" style="stop-color:#00A19A" id="stop28" /><stop offset="0.1471" style="stop-color:#0098A5" id="stop30" /><stop offset="0.4596" style="stop-color:#0D7CB6" id="stop32" /><stop offset="0.5645" style="stop-color:#1D71B8" id="stop34" /><stop offset="1" style="stop-color:#312783" id="stop36" /></linearGradient><path fill="url(#SVGID_3_)" d="m 66.276,164.391 c -0.769,1.793 -1.793,3.842 -1.793,6.02 0,0.598 0.213,0.896 0.769,0.896 1.708,0 3.543,-2.092 5.251,-6.916 3.074,-8.795 5.379,-8.795 9.393,-8.795 -0.47,0.683 -1.153,2.092 -3.671,9.008 -2.263,6.148 -2.434,6.447 -2.434,6.788 0,0.641 0.17,0.854 0.982,0.854 2.263,0 4.611,-2.903 6.148,-5.978 0.085,0.299 0.213,0.641 0.213,0.982 0,3.458 -4.44,6.617 -7.941,6.617 -3.031,0 -3.116,-2.477 -4.525,-2.477 -2.306,0 -3.672,2.477 -7.6,2.477 -1.921,0 -2.604,-0.811 -2.604,-2.391 0,-2.05 1.024,-4.483 2.476,-7.771 3.543,-8.069 5.721,-8.111 9.393,-8.111 -0.471,0.727 -1.708,3.417 -4.057,8.797 z" id="path39" style="fill:url(#SVGID_3_)" /><linearGradient id="SVGID_4_" gradientUnits="userSpaceOnUse" x1="89.950699" y1="174.16701" x2="89.950699" y2="155.12601"><stop offset="0" style="stop-color:#00A19A" id="stop41" /><stop offset="0.1471" style="stop-color:#0098A5" id="stop43" /><stop offset="0.4596" style="stop-color:#0D7CB6" id="stop45" /><stop offset="0.5645" style="stop-color:#1D71B8" id="stop47" /><stop offset="1" style="stop-color:#312783" id="stop49" /></linearGradient><path fill="url(#SVGID_4_)" d="m 96.291,163.237 c -2.903,7.429 -2.946,7.898 -2.946,8.197 0,0.556 0.213,0.812 0.982,0.812 2.818,0 4.824,-3.202 6.233,-5.978 0.085,0.299 0.17,0.598 0.17,0.939 0,3.458 -4.354,6.66 -7.983,6.66 -1.879,0 -3.928,-0.598 -3.928,-3.116 -1.793,2.562 -3.33,3.415 -6.02,3.415 -2.604,0 -3.629,-1.708 -3.629,-4.354 0,-7.898 6.233,-14.687 12.04,-14.687 2.604,0 2.689,1.067 4.654,1.067 0.726,0 1.964,-0.214 3.629,-0.641 -0.47,0.855 -0.982,1.966 -3.202,7.686 z m -11.356,9.094 c 1.58,0 7.386,-8.966 7.386,-14.388 0,-0.896 -0.256,-1.323 -0.896,-1.323 -1.921,0 -7.514,8.88 -7.514,14.132 -0.001,1.152 0.34,1.579 1.024,1.579 z" id="path52" style="fill:url(#SVGID_4_)" /></g><g id="g66" transform="translate(-19.001399,-48.335)"><path fill="#3c3c3b" d="m 52.321,201.699 c -5.764,15.584 -9.393,15.67 -12.851,15.67 1.281,-1.965 2.946,-5.209 6.831,-15.67 l 4.397,-11.867 c -2.135,0 -2.69,0.084 -3.202,0.213 0.811,-1.494 1.878,-2.477 4.056,-2.477 4.611,-10.375 9.051,-12.51 14.474,-12.51 1.665,0 3.971,0.086 3.971,2.135 0,0.812 -0.555,4.014 -4.953,4.014 0.64,-1.066 1.195,-2.178 1.195,-2.988 0,-0.982 -0.171,-1.494 -1.153,-1.494 -2.006,0 -5.337,4.141 -7.514,10.844 4.654,0 5.209,-0.086 5.764,-0.213 -0.896,1.365 -1.878,2.477 -6.618,2.477 z" id="path56" /><path fill="#3c3c3b" d="m 76.444,192.393 c 0,8.154 -6.66,13.748 -12.894,13.748 -3.757,0 -5.807,-1.922 -5.807,-5.807 0,-8.41 6.319,-13.234 12.937,-13.234 3.757,0 5.764,1.707 5.764,5.293 z m -12.723,12.296 c 2.689,0 7.343,-10.973 7.343,-15.156 0,-0.855 -0.128,-1.281 -0.811,-1.281 -2.604,0 -7.429,10.844 -7.429,15.027 0,0.94 0.214,1.41 0.897,1.41 z" id="path58" /><path fill="#3c3c3b" d="m 87.417,187.568 c 4.611,0 5.251,-0.086 5.764,-0.213 -0.896,1.365 -1.835,2.477 -6.575,2.477 -4.824,12.766 -4.953,13.32 -4.953,13.533 0,0.641 0.128,0.854 0.939,0.854 2.69,0 4.696,-2.775 6.276,-5.977 0.128,0.299 0.213,0.598 0.213,0.939 0,3.672 -4.611,6.66 -8.069,6.66 -2.647,0 -4.099,-1.41 -4.099,-4.1 0,-1.195 0.171,-2.816 3.671,-11.91 -2.134,0 -2.775,0.084 -3.202,0.213 0.811,-1.494 1.835,-2.477 4.013,-2.477 3.543,-7.471 6.276,-7.941 9.521,-7.941 -0.468,0.642 -1.663,3.118 -3.499,7.942 z" id="path60" /><path fill="#3c3c3b" d="m 106.587,192.393 c 0,8.154 -6.66,13.748 -12.894,13.748 -3.757,0 -5.807,-1.922 -5.807,-5.807 0,-8.41 6.319,-13.234 12.937,-13.234 3.758,0 5.764,1.707 5.764,5.293 z m -12.722,12.296 c 2.689,0 7.343,-10.973 7.343,-15.156 0,-0.855 -0.128,-1.281 -0.811,-1.281 -2.604,0 -7.429,10.844 -7.429,15.027 0,0.94 0.214,1.41 0.897,1.41 z" id="path62" /><path fill="#3c3c3b" d="m 111.285,204.689 c 1.836,0 2.989,-0.982 2.989,-2.562 0,-2.945 -4.739,-5.508 -4.739,-8.666 0,-5.465 6.703,-6.361 8.838,-6.361 2.818,0 4.568,0.768 4.568,2.561 0,2.605 -2.391,3.971 -3.757,3.971 -0.896,0 -1.623,-0.213 -1.836,-1.408 0.171,0.084 0.299,0.084 0.384,0.084 0.896,0 1.75,-1.152 1.75,-2.006 0,-0.727 -0.042,-2.049 -1.409,-2.049 -1.708,0 -3.245,1.494 -3.245,2.988 0,2.988 5.465,4.568 5.465,8.41 0,5.082 -6.66,6.49 -9.35,6.49 -3.202,0 -5.55,-1.025 -5.55,-4.014 0,-2.305 1.494,-4.098 3.714,-4.098 1.067,0 1.708,0.34 2.177,1.578 -0.256,-0.127 -0.512,-0.17 -0.726,-0.17 -1.11,0 -1.75,0.982 -1.75,2.434 10e-4,1.793 0.684,2.818 2.477,2.818 z" id="path64" /></g><g id="g144" transform="translate(-19.001399,-48.335)"><defs id="defs69"><path id="SVGID_5_" d="m 131.621,140.061 c -2.298,0 -4.113,1.221 -4.414,2.971 -0.174,1.014 0.185,2.051 1.011,2.917 0.797,0.834 1.94,1.416 3.223,1.637 0.277,0.048 0.576,0.073 0.892,0.073 3.002,0 6.767,-2.156 6.926,-2.249 l 0.405,-0.233 -0.304,-0.356 c -0.143,-0.17 -3.553,-4.134 -6.64,-4.665 -0.366,-0.066 -0.736,-0.095 -1.099,-0.095 z" /></defs><defs id="defs72"><path id="SVGID_6_" d="m 19.595,147.361 c 0.15,-0.013 0.304,-10e-4 0.454,-10e-4 28.685,0 57.369,0 86.054,0 0.173,0 0.349,-0.016 0.52,0.003 0.435,0.041 0.6,-0.159 0.675,-0.581 0.323,-1.835 0.634,-3.671 1.034,-5.489 1.181,-5.375 3.096,-10.489 5.66,-15.357 6.061,-11.51 14.806,-20.402 26.179,-26.689 4.442,-2.455 9.133,-4.328 14.052,-5.633 7.078,-1.88 14.253,-2.629 21.557,-2.029 17.235,1.414 31.643,8.58 43.249,21.371 5.16,5.688 9.061,12.175 11.873,19.312 1.709,4.342 2.92,8.827 3.601,13.449 0.157,1.062 0.157,1.062 1.253,1.062 9.662,0 19.325,0 28.988,0 0.944,0 0.967,-0.002 0.936,-0.963 -0.41,-12.521 -0.987,-25.027 -3.258,-37.384 -0.588,-3.199 -1.396,-6.342 -2.461,-9.424 -1.131,-3.279 -3.224,-5.715 -6.07,-7.626 -4.787,-3.213 -10.036,-5.368 -15.551,-6.92 -2.646,-0.745 -5.342,-1.315 -7.994,-2.046 -4.309,-1.186 -7.996,-3.396 -10.867,-6.869 -2.748,-3.326 -4.157,-7.223 -4.734,-11.439 -0.206,-1.497 -0.319,-3.025 -0.282,-4.533 0.058,-2.395 -0.959,-4.097 -2.929,-5.352 -2.187,-1.393 -4.594,-2.226 -7.074,-2.881 -5.555,-1.467 -11.241,-2.081 -16.955,-2.441 -2.982,-0.188 -5.973,-0.232 -8.959,-0.359 -0.6,-0.025 -1.195,-0.136 -1.793,-0.207 -2.946,0 -5.893,0 -8.839,0 -0.752,0.074 -1.503,0.201 -2.253,0.213 -6.793,0.11 -13.545,0.656 -20.231,1.879 -2.646,0.482 -5.277,1.09 -7.729,2.219 -1.285,0.591 -2.482,1.395 -3.661,2.189 -0.852,0.574 -1.21,1.502 -1.346,2.505 -0.168,1.245 -0.296,2.497 -0.501,3.735 -0.896,5.412 -3.212,10.094 -7.306,13.801 -2.941,2.664 -6.423,4.381 -10.185,5.574 -3.919,1.242 -7.97,1.644 -12.038,1.917 -2.137,0.143 -4.283,0.224 -6.426,0.23 C 94.35,82.603 94.35,82.54 93.912,80.73 93.263,78.043 90.938,76.042 88.171,75.791 87.955,75.771 87.737,75.751 87.522,75.749 76.556,75.6 65.596,75.587 54.687,76.944 c -1.01,0.127 -2.026,0.269 -3.006,0.527 -0.74,0.195 -1.467,0.519 -2.129,0.906 -1.565,0.917 -2.479,2.236 -2.414,4.146 0.021,0.641 -0.164,1.286 -0.227,1.933 -0.049,0.522 -0.331,0.758 -0.829,0.819 -1.656,0.203 -3.308,0.43 -4.963,0.626 -3.643,0.433 -7.263,0.98 -10.714,2.284 -0.987,0.373 -1.942,0.859 -2.864,1.378 -1.832,1.031 -3.047,2.559 -3.678,4.596 -1.139,3.668 -1.709,7.435 -2.004,11.24 -0.817,10.495 -1.577,20.997 -2.323,31.498 -0.232,3.263 -0.344,6.533 -0.53,9.799 -0.031,0.474 0.087,0.708 0.589,0.665 z M 224.072,93.23 c 0.394,-0.029 9.674,-0.683 15.473,2.117 0.607,0.293 1.166,0.619 1.656,0.971 2.268,1.62 3.936,3.809 4.696,6.165 0.788,2.445 0.515,4.78 -0.767,6.576 -2.213,3.099 -6.856,3.768 -11.294,1.626 -0.702,-0.34 -1.387,-0.748 -2.034,-1.209 -5.469,-3.904 -8.357,-14.741 -8.478,-15.199 l -0.253,-0.973 z" /></defs><defs id="defs75"><path id="SVGID_7_" d="m 140.667,144.322 0.395,0.253 0.176,-0.434 c 0.058,-0.141 1.407,-3.487 0.749,-5.564 -0.488,-1.543 -1.712,-2.618 -2.975,-2.618 -0.222,0 -0.439,0.033 -0.648,0.1 -1.416,0.448 -2.095,2.307 -1.513,4.145 0.658,2.078 3.687,4.035 3.816,4.118 z" /></defs><defs id="defs78"><path id="SVGID_8_" d="m 117.805,148.652 c -0.304,2.267 -0.466,4.575 -0.478,6.919 -0.145,29.861 24.103,54.116 53.77,54.102 29.817,-0.015 53.886,-24.042 53.886,-53.844 -0.002,-3.159 -0.273,-6.255 -0.799,-9.265 -3.812,-0.997 -12.525,-1.281 -23.643,10.984 -15.08,16.64 -31.72,13.261 -39.52,10.141 -7.8,-3.121 -12.221,-13.78 -5.46,-20.322 6.76,-6.54 17.68,-4.379 18.98,2.641 1.3,7.021 -9.62,4.16 -11.44,-0.519 -2.6,3.381 -0.521,10.4 8.051,12.479 8.575,2.08 19.769,-14.561 5.469,-23.659 -14.3,-9.102 -23.4,-1.82 -34.278,6.76 -7.304,5.761 -18.18,4.823 -24.538,3.583 z m 99.032,1.319 c 2.38,-0.409 4.557,0.689 4.86,2.457 0.305,1.768 -1.379,3.53 -3.758,3.941 -2.867,0.493 -7.26,-2.044 -7.26,-2.044 0,0 3.292,-3.861 6.158,-4.354 z" /></defs><linearGradient id="SVGID_9_" gradientUnits="userSpaceOnUse" x1="127.1641" y1="143.85941" x2="139.6636" y2="143.85941"><stop offset="0" style="stop-color:#00A19A" id="stop80" /><stop offset="0.2606" style="stop-color:#0098A5" id="stop82" /><stop offset="0.814" style="stop-color:#0D7CB6" id="stop84" /><stop offset="1" style="stop-color:#1D71B8" id="stop86" /></linearGradient><use xlink:href="#SVGID_5_" overflow="visible" fill-rule="evenodd" clip-rule="evenodd" fill="url(#SVGID_9_)" id="use89" x="0" y="0" width="100%" height="100%" style="fill:url(#SVGID_9_)" /><linearGradient id="SVGID_10_" gradientUnits="userSpaceOnUse" x1="18.998501" y1="97.851097" x2="265.68549" y2="97.851097"><stop offset="0" style="stop-color:#00A19A" id="stop91" /><stop offset="0.0956" style="stop-color:#0098A5" id="stop93" /><stop offset="0.2986" style="stop-color:#0D7CB6" id="stop95" /><stop offset="0.3669" style="stop-color:#1D71B8" id="stop97" /><stop offset="0.6491" style="stop-color:#312B86" id="stop99" /><stop offset="1" style="stop-color:#662483" id="stop101" /></linearGradient><use xlink:href="#SVGID_6_" overflow="visible" fill-rule="evenodd" clip-rule="evenodd" fill="url(#SVGID_10_)" id="use104" x="0" y="0" width="100%" height="100%" style="fill:url(#SVGID_10_)" /><linearGradient id="SVGID_11_" gradientUnits="userSpaceOnUse" x1="136.64211" y1="140.26711" x2="142.1675" y2="140.26711"><stop offset="0" style="stop-color:#00A19A" id="stop106" /><stop offset="0.3451" style="stop-color:#0091AC" id="stop108" /><stop offset="0.784" style="stop-color:#117AB7" id="stop110" /><stop offset="1" style="stop-color:#1D71B8" id="stop112" /></linearGradient><use xlink:href="#SVGID_7_" overflow="visible" fill-rule="evenodd" clip-rule="evenodd" fill="url(#SVGID_11_)" id="use115" x="0" y="0" width="100%" height="100%" style="fill:url(#SVGID_11_)" /><linearGradient id="SVGID_12_" gradientUnits="userSpaceOnUse" x1="117.3262" y1="171.89059" x2="224.98241" y2="171.89059"><stop offset="0" style="stop-color:#00A19A" id="stop117" /><stop offset="0.0956" style="stop-color:#0098A5" id="stop119" /><stop offset="0.2986" style="stop-color:#0D7CB6" id="stop121" /><stop offset="0.3669" style="stop-color:#1D71B8" id="stop123" /><stop offset="0.6491" style="stop-color:#312B86" id="stop125" /><stop offset="1" style="stop-color:#662483" id="stop127" /></linearGradient><use xlink:href="#SVGID_8_" overflow="visible" fill-rule="evenodd" clip-rule="evenodd" fill="url(#SVGID_12_)" id="use130" x="0" y="0" width="100%" height="100%" style="fill:url(#SVGID_12_)" /><clipPath id="SVGID_13_"><use xlink:href="#SVGID_5_" overflow="visible" id="use132" x="0" y="0" width="100%" height="100%" /></clipPath><clipPath id="SVGID_14_" clip-path="url(#SVGID_13_)"><use xlink:href="#SVGID_6_" overflow="visible" id="use135" x="0" y="0" width="100%" height="100%" /></clipPath><clipPath id="SVGID_15_" clip-path="url(#SVGID_14_)"><use xlink:href="#SVGID_7_" overflow="visible" id="use138" x="0" y="0" width="100%" height="100%" /></clipPath><clipPath id="SVGID_16_" clip-path="url(#SVGID_15_)"><use xlink:href="#SVGID_8_" overflow="visible" id="use141" x="0" y="0" width="100%" height="100%" /></clipPath></g></svg>
